# xmcd
#
# Track frame offsets: 
#        150
#        14298
#        28928
#        43143
#        55758
#        67481
#        80663
#        93953
#        107003
#        122116
#        134671
#        148618
#        163163
#        189776
#        208221
#        229156
#        251351
#        272906
#        289814
#        307356
#        328126
#
# Disc length: 4620 seconds
#
# Revision: 2
# Processed by: cddbd v1.5.1PL2 Copyright (c) Steve Scherf et al.
# Submitted via: ExactAudioCopy v0.95b4
#
DISCID=4d120a15
DTITLE=ABBA - Ring Ring (1-12) 1973 and The Album (13-21) 1977
DYEAR=2003
DGENRE=Pop
TTITLE0=Abba - Ring, Ring
TTITLE1=Abba - Another Town, Another Train
TTITLE2=Abba - Disillusion
TTITLE3=Abba - People Need Love
TTITLE4=Abba - I Saw It In The Mirror
TTITLE5=Abba - Nina, Pretty Ballerina
TTITLE6=Abba - Love Isn't Easy (But It Sure Is Hard Enough)
TTITLE7=Abba - Me And Bobby And Bobby's Brother
TTITLE8=Abba - He Is Your Brother
TTITLE9=Abba - She's My Kind Of Girl
TTITLE10=Abba - I Am Just A Girl
TTITLE11=Abba - Rock'n' Roll Band
TTITLE12=Abba - Eagle
TTITLE13=Abba - Take A Chance On Me
TTITLE14=Abba - One Man, One Woman
TTITLE15=Abba - The Name Of The Game
TTITLE16=Abba - Move On
TTITLE17=Abba - Hole In Your Soul
TTITLE18=Abba - "The Girl With Golden Hair" Thank You For The Music
TTITLE19=Abba - I Wonder {Departure)
TTITLE20=Abba - I'm Marionette
EXTD=
EXTT0=
EXTT1=
EXTT2=
EXTT3=
EXTT4=
EXTT5=
EXTT6=
EXTT7=
EXTT8=
EXTT9=
EXTT10=
EXTT11=
EXTT12=
EXTT13=
EXTT14=
EXTT15=
EXTT16=
EXTT17=
EXTT18=
EXTT19=
EXTT20=
PLAYORDER=
